<svg width="128" height="128" viewBox="0 0 64 64" fill="none" xmlns="http://www.w3.org/2000/svg">
<g clip-path="url(#clip0_244_1502)">
<g filter="url(#filter0_bi_244_1502)">
<path fill-rule="evenodd" clip-rule="evenodd" d="M46.375 54.625H15.63C15.6283 54.625 15.6267 54.625 15.625 54.625C7.89301 54.625 1.625 48.357 1.625 40.625C1.625 34.5977 5.43387 29.46 10.776 27.4875C11.9821 17.7706 20.269 10.25 30.3125 10.25C38.6632 10.25 45.7996 15.4492 48.6613 22.7871C56.4148 23.8965 62.375 30.5647 62.375 38.625C62.375 47.4599 55.2143 54.6223 46.38 54.625C46.3783 54.625 46.3767 54.625 46.375 54.625Z" fill="url(#paint0_radial_244_1502)" fill-opacity="0.9"/>
</g>
<mask id="mask0_244_1502" style="mask-type:alpha" maskUnits="userSpaceOnUse" x="1" y="10" width="62" height="45">
<path fill-rule="evenodd" clip-rule="evenodd" d="M46.375 54.625H15.63C15.6283 54.625 15.6267 54.625 15.625 54.625C7.89301 54.625 1.625 48.357 1.625 40.625C1.625 34.5977 5.43387 29.46 10.776 27.4875C11.9821 17.7706 20.269 10.25 30.3125 10.25C38.6632 10.25 45.7996 15.4492 48.6613 22.7871C56.4148 23.8965 62.375 30.5647 62.375 38.625C62.375 47.4599 55.2143 54.6223 46.38 54.625C46.3783 54.625 46.3767 54.625 46.375 54.625Z" fill="url(#paint1_radial_244_1502)" fill-opacity="0.9"/>
</mask>
<g mask="url(#mask0_244_1502)">
<g filter="url(#filter1_d_244_1502)">
<mask id="mask1_244_1502" style="mask-type:alpha" maskUnits="userSpaceOnUse" x="10" y="10" width="40" height="40">
<g style="mix-blend-mode:soft-light">
<path fill-rule="evenodd" clip-rule="evenodd" d="M30.3125 49.625C41.1856 49.625 50 40.8106 50 29.9375C50 19.0644 41.1856 10.25 30.3125 10.25C20.269 10.25 11.9821 17.7706 10.7759 27.4875C12.2868 26.9297 13.9203 26.625 15.625 26.625C23.357 26.625 29.625 32.893 29.625 40.625C29.625 43.8927 28.5055 46.8989 26.6291 49.281C27.8223 49.5068 29.0536 49.625 30.3125 49.625Z" fill="#09244B"/>
</g>
</mask>
<g mask="url(#mask1_244_1502)">
<g style="mix-blend-mode:soft-light">
<circle cx="30.3125" cy="29.9375" r="19.6875" fill="url(#paint2_linear_244_1502)"/>
</g>
</g>
</g>
<g style="mix-blend-mode:soft-light" filter="url(#filter2_di_244_1502)">
<circle cx="15.625" cy="40.625" r="14" fill="url(#paint3_linear_244_1502)" shape-rendering="crispEdges"/>
</g>
<g style="mix-blend-mode:soft-light" opacity="0.7">
<circle cx="46.375" cy="38.625" r="16" fill="url(#paint4_linear_244_1502)"/>
</g>
</g>
</g>
<defs>
<filter id="filter0_bi_244_1502" x="-6.375" y="2.25" width="76.75" height="60.375" filterUnits="userSpaceOnUse" color-interpolation-filters="sRGB">
<feFlood flood-opacity="0" result="BackgroundImageFix"/>
<feGaussianBlur in="BackgroundImageFix" stdDeviation="4"/>
<feComposite in2="SourceAlpha" operator="in" result="effect1_backgroundBlur_244_1502"/>
<feBlend mode="normal" in="SourceGraphic" in2="effect1_backgroundBlur_244_1502" result="shape"/>
<feColorMatrix in="SourceAlpha" type="matrix" values="0 0 0 0 0 0 0 0 0 0 0 0 0 0 0 0 0 0 127 0" result="hardAlpha"/>
<feOffset dx="1" dy="3.38"/>
<feGaussianBlur stdDeviation="3.375"/>
<feComposite in2="hardAlpha" operator="arithmetic" k2="-1" k3="1"/>
<feColorMatrix type="matrix" values="0 0 0 0 1 0 0 0 0 1 0 0 0 0 1 0 0 0 0.95 0"/>
<feBlend mode="normal" in2="shape" result="effect2_innerShadow_244_1502"/>
</filter>
<filter id="filter1_d_244_1502" x="7.77594" y="0.25" width="51.2241" height="51.375" filterUnits="userSpaceOnUse" color-interpolation-filters="sRGB">
<feFlood flood-opacity="0" result="BackgroundImageFix"/>
<feColorMatrix in="SourceAlpha" type="matrix" values="0 0 0 0 0 0 0 0 0 0 0 0 0 0 0 0 0 0 127 0" result="hardAlpha"/>
<feOffset dx="3" dy="-4"/>
<feGaussianBlur stdDeviation="3"/>
<feComposite in2="hardAlpha" operator="out"/>
<feColorMatrix type="matrix" values="0 0 0 0 0 0 0 0 0 0 0 0 0 0 0 0 0 0 0.4 0"/>
<feBlend mode="soft-light" in2="BackgroundImageFix" result="effect1_dropShadow_244_1502"/>
<feBlend mode="normal" in="SourceGraphic" in2="effect1_dropShadow_244_1502" result="shape"/>
</filter>
<filter id="filter2_di_244_1502" x="-6.375" y="12.625" width="40" height="45.1111" filterUnits="userSpaceOnUse" color-interpolation-filters="sRGB">
<feFlood flood-opacity="0" result="BackgroundImageFix"/>
<feColorMatrix in="SourceAlpha" type="matrix" values="0 0 0 0 0 0 0 0 0 0 0 0 0 0 0 0 0 0 127 0" result="hardAlpha"/>
<feOffset dx="-2" dy="-8"/>
<feGaussianBlur stdDeviation="3"/>
<feComposite in2="hardAlpha" operator="out"/>
<feColorMatrix type="matrix" values="0 0 0 0 0 0 0 0 0 0 0 0 0 0 0 0 0 0 0.3 0"/>
<feBlend mode="normal" in2="BackgroundImageFix" result="effect1_dropShadow_244_1502"/>
<feBlend mode="normal" in="SourceGraphic" in2="effect1_dropShadow_244_1502" result="shape"/>
<feColorMatrix in="SourceAlpha" type="matrix" values="0 0 0 0 0 0 0 0 0 0 0 0 0 0 0 0 0 0 127 0" result="hardAlpha"/>
<feOffset dx="3.11111" dy="3.11111"/>
<feGaussianBlur stdDeviation="3.11111"/>
<feComposite in2="hardAlpha" operator="arithmetic" k2="-1" k3="1"/>
<feColorMatrix type="matrix" values="0 0 0 0 1 0 0 0 0 1 0 0 0 0 1 0 0 0 0.7 0"/>
<feBlend mode="normal" in2="shape" result="effect2_innerShadow_244_1502"/>
</filter>
<radialGradient id="paint0_radial_244_1502" cx="0" cy="0" r="1" gradientUnits="userSpaceOnUse" gradientTransform="translate(25.5 19) rotate(90) scale(35 39.9474)">
<stop stop-color="#EFF6FF"/>
<stop offset="1" stop-color="#89C8F5"/>
</radialGradient>
<radialGradient id="paint1_radial_244_1502" cx="0" cy="0" r="1" gradientUnits="userSpaceOnUse" gradientTransform="translate(34.8125 24.8125) rotate(90) scale(25.3125 28.125)">
<stop offset="0.239583" stop-color="#C8E0FF"/>
<stop offset="1" stop-color="#89C8F5"/>
</radialGradient>
<linearGradient id="paint2_linear_244_1502" x1="30.3125" y1="10.25" x2="30.3125" y2="49.625" gradientUnits="userSpaceOnUse">
<stop stop-color="#7DAAE6"/>
<stop offset="1" stop-color="#7DAAE5" stop-opacity="0"/>
</linearGradient>
<linearGradient id="paint3_linear_244_1502" x1="15.625" y1="26.625" x2="15.625" y2="54.625" gradientUnits="userSpaceOnUse">
<stop stop-color="#7DAAE6"/>
<stop offset="1" stop-color="#7DAAE5" stop-opacity="0"/>
</linearGradient>
<linearGradient id="paint4_linear_244_1502" x1="62.375" y1="39.625" x2="43.875" y2="38.625" gradientUnits="userSpaceOnUse">
<stop stop-color="#96CDF6"/>
<stop offset="1" stop-color="#96CDF6" stop-opacity="0"/>
</linearGradient>
<clipPath id="clip0_244_1502">
<rect width="64" height="64" fill="white"/>
</clipPath>
</defs>
</svg>
