<svg width="128" height="128" viewBox="0 0 64 64" fill="none" xmlns="http://www.w3.org/2000/svg">
<g clip-path="url(#clip0_244_1514)">
<g opacity="0.9">
<mask id="mask0_244_1514" style="mask-type:alpha" maskUnits="userSpaceOnUse" x="8" y="8" width="54" height="41">
<path fill-rule="evenodd" clip-rule="evenodd" d="M47.7778 48.1111L20.4448 48.1111C20.4447 48.1111 20.4446 48.1111 20.4444 48.1111C13.5716 48.1111 8 42.5395 8 35.6667C8 30.309 11.3857 25.7422 16.1342 23.9889C17.2063 15.3516 24.5725 8.66666 33.5 8.66666C40.9229 8.66666 47.2663 13.2882 49.81 19.8108C56.7021 20.7968 62 26.7242 62 33.8889C62 41.7427 55.634 48.1096 47.7806 48.1111C47.7797 48.1111 47.7787 48.1111 47.7778 48.1111Z" fill="url(#paint0_linear_244_1514)"/>
</mask>
<g mask="url(#mask0_244_1514)">
<g filter="url(#filter0_bi_244_1514)">
<path fill-rule="evenodd" clip-rule="evenodd" d="M47.7778 48.1111H20.4489C20.4474 48.1111 20.4459 48.1111 20.4444 48.1111C13.5716 48.1111 8 42.5395 8 35.6667C8 30.3091 11.3857 25.7422 16.1342 23.9889C17.2063 15.3516 24.5725 8.66667 33.5 8.66667C40.9229 8.66667 47.2663 13.2882 49.81 19.8108C56.7021 20.7969 62 26.7242 62 33.8889C62 41.7421 55.6349 48.1087 47.7822 48.1111C47.7807 48.1111 47.7793 48.1111 47.7778 48.1111Z" fill="url(#paint1_radial_244_1514)"/>
</g>
<mask id="mask1_244_1514" style="mask-type:alpha" maskUnits="userSpaceOnUse" x="8" y="8" width="54" height="41">
<path fill-rule="evenodd" clip-rule="evenodd" d="M47.7778 48.1111H20.4489C20.4474 48.1111 20.4459 48.1111 20.4444 48.1111C13.5716 48.1111 8 42.5395 8 35.6667C8 30.3091 11.3857 25.7422 16.1342 23.9889C17.2063 15.3516 24.5725 8.66667 33.5 8.66667C40.9229 8.66667 47.2663 13.2882 49.81 19.8108C56.7021 20.7969 62 26.7242 62 33.8889C62 41.7421 55.6349 48.1087 47.7822 48.1111C47.7807 48.1111 47.7793 48.1111 47.7778 48.1111Z" fill="url(#paint2_radial_244_1514)"/>
</mask>
<g mask="url(#mask1_244_1514)">
<g filter="url(#filter1_d_244_1514)">
<mask id="mask2_244_1514" style="mask-type:alpha" maskUnits="userSpaceOnUse" x="16" y="8" width="35" height="36">
<g style="mix-blend-mode:soft-light">
<path fill-rule="evenodd" clip-rule="evenodd" d="M33.5 43.6667C43.165 43.6667 51 35.8317 51 26.1667C51 16.5017 43.165 8.66667 33.5 8.66667C24.5725 8.66667 17.2063 15.3516 16.1342 23.9889C17.4772 23.493 18.9292 23.2222 20.4444 23.2222C27.3173 23.2222 32.8889 28.7938 32.8889 35.6667C32.8889 38.5713 31.8937 41.2435 30.2258 43.3609C31.2865 43.5616 32.381 43.6667 33.5 43.6667Z" fill="#09244B"/>
</g>
</mask>
<g mask="url(#mask2_244_1514)">
<g style="mix-blend-mode:soft-light" filter="url(#filter2_i_244_1514)">
<circle cx="33.5" cy="26.1667" r="17.5" fill="url(#paint3_linear_244_1514)"/>
</g>
</g>
</g>
<g style="mix-blend-mode:soft-light" filter="url(#filter3_di_244_1514)">
<circle cx="20.4444" cy="35.6667" r="12.4444" fill="url(#paint4_linear_244_1514)" shape-rendering="crispEdges"/>
</g>
<g style="mix-blend-mode:soft-light" opacity="0.7">
<circle cx="47.7778" cy="33.8889" r="14.2222" fill="url(#paint5_linear_244_1514)"/>
</g>
</g>
</g>
</g>
<g filter="url(#filter4_bi_244_1514)">
<path fill-rule="evenodd" clip-rule="evenodd" d="M41.7778 56.1111H14.4489C14.4474 56.1111 14.4459 56.1111 14.4444 56.1111C7.57157 56.1111 2 50.5395 2 43.6667C2 38.3091 5.38566 33.7422 10.1342 31.9889C11.2063 23.3516 18.5725 16.6667 27.5 16.6667C34.9229 16.6667 41.2663 21.2882 43.81 27.8108C50.7021 28.7969 56 34.7242 56 41.8889C56 49.7421 49.6349 56.1087 41.7822 56.1111C41.7807 56.1111 41.7793 56.1111 41.7778 56.1111Z" fill="url(#paint6_radial_244_1514)"/>
</g>
<mask id="mask3_244_1514" style="mask-type:alpha" maskUnits="userSpaceOnUse" x="2" y="16" width="54" height="41">
<path fill-rule="evenodd" clip-rule="evenodd" d="M41.7778 56.1111H14.4489C14.4474 56.1111 14.4459 56.1111 14.4444 56.1111C7.57157 56.1111 2 50.5395 2 43.6667C2 38.3091 5.38566 33.7422 10.1342 31.9889C11.2063 23.3516 18.5725 16.6667 27.5 16.6667C34.9229 16.6667 41.2663 21.2882 43.81 27.8108C50.7021 28.7969 56 34.7242 56 41.8889C56 49.7421 49.6349 56.1087 41.7822 56.1111C41.7807 56.1111 41.7793 56.1111 41.7778 56.1111Z" fill="url(#paint7_radial_244_1514)"/>
</mask>
<g mask="url(#mask3_244_1514)">
<g filter="url(#filter5_d_244_1514)">
<mask id="mask4_244_1514" style="mask-type:alpha" maskUnits="userSpaceOnUse" x="10" y="16" width="35" height="36">
<g style="mix-blend-mode:soft-light">
<path fill-rule="evenodd" clip-rule="evenodd" d="M27.5 51.6667C37.165 51.6667 45 43.8317 45 34.1667C45 24.5017 37.165 16.6667 27.5 16.6667C18.5725 16.6667 11.2063 23.3516 10.1342 31.9889C11.4772 31.493 12.9292 31.2222 14.4444 31.2222C21.3173 31.2222 26.8889 36.7938 26.8889 43.6667C26.8889 46.5713 25.8937 49.2435 24.2258 51.3609C25.2865 51.5616 26.381 51.6667 27.5 51.6667Z" fill="#09244B"/>
</g>
</mask>
<g mask="url(#mask4_244_1514)">
<g style="mix-blend-mode:soft-light" filter="url(#filter6_i_244_1514)">
<circle cx="27.5" cy="34.1667" r="17.5" fill="url(#paint8_linear_244_1514)"/>
</g>
</g>
</g>
<g style="mix-blend-mode:soft-light" filter="url(#filter7_di_244_1514)">
<circle cx="14.4444" cy="43.6667" r="12.4444" fill="url(#paint9_linear_244_1514)" shape-rendering="crispEdges"/>
</g>
<g style="mix-blend-mode:soft-light" opacity="0.7">
<circle cx="41.7778" cy="41.8889" r="14.2222" fill="url(#paint10_linear_244_1514)"/>
</g>
</g>
</g>
<defs>
<filter id="filter0_bi_244_1514" x="2" y="2.66667" width="66" height="51.4444" filterUnits="userSpaceOnUse" color-interpolation-filters="sRGB">
<feFlood flood-opacity="0" result="BackgroundImageFix"/>
<feGaussianBlur in="BackgroundImageFix" stdDeviation="3"/>
<feComposite in2="SourceAlpha" operator="in" result="effect1_backgroundBlur_244_1514"/>
<feBlend mode="normal" in="SourceGraphic" in2="effect1_backgroundBlur_244_1514" result="shape"/>
<feColorMatrix in="SourceAlpha" type="matrix" values="0 0 0 0 0 0 0 0 0 0 0 0 0 0 0 0 0 0 127 0" result="hardAlpha"/>
<feOffset dx="0.888889" dy="3.00444"/>
<feGaussianBlur stdDeviation="3"/>
<feComposite in2="hardAlpha" operator="arithmetic" k2="-1" k3="1"/>
<feColorMatrix type="matrix" values="0 0 0 0 1 0 0 0 0 1 0 0 0 0 1 0 0 0 0.95 0"/>
<feBlend mode="normal" in2="shape" result="effect2_innerShadow_244_1514"/>
</filter>
<filter id="filter1_d_244_1514" x="13.4675" y="-0.222217" width="45.5325" height="45.6667" filterUnits="userSpaceOnUse" color-interpolation-filters="sRGB">
<feFlood flood-opacity="0" result="BackgroundImageFix"/>
<feColorMatrix in="SourceAlpha" type="matrix" values="0 0 0 0 0 0 0 0 0 0 0 0 0 0 0 0 0 0 127 0" result="hardAlpha"/>
<feOffset dx="2.66667" dy="-3.55556"/>
<feGaussianBlur stdDeviation="2.66667"/>
<feComposite in2="hardAlpha" operator="out"/>
<feColorMatrix type="matrix" values="0 0 0 0 0 0 0 0 0 0 0 0 0 0 0 0 0 0 0.4 0"/>
<feBlend mode="soft-light" in2="BackgroundImageFix" result="effect1_dropShadow_244_1514"/>
<feBlend mode="normal" in="SourceGraphic" in2="effect1_dropShadow_244_1514" result="shape"/>
</filter>
<filter id="filter2_i_244_1514" x="16" y="8.66667" width="38" height="38" filterUnits="userSpaceOnUse" color-interpolation-filters="sRGB">
<feFlood flood-opacity="0" result="BackgroundImageFix"/>
<feBlend mode="normal" in="SourceGraphic" in2="BackgroundImageFix" result="shape"/>
<feColorMatrix in="SourceAlpha" type="matrix" values="0 0 0 0 0 0 0 0 0 0 0 0 0 0 0 0 0 0 127 0" result="hardAlpha"/>
<feOffset dx="3" dy="3"/>
<feGaussianBlur stdDeviation="3"/>
<feComposite in2="hardAlpha" operator="arithmetic" k2="-1" k3="1"/>
<feColorMatrix type="matrix" values="0 0 0 0 1 0 0 0 0 1 0 0 0 0 1 0 0 0 0.7 0"/>
<feBlend mode="normal" in2="shape" result="effect1_innerShadow_244_1514"/>
</filter>
<filter id="filter3_di_244_1514" x="0.888889" y="10.7778" width="35.5556" height="40.0988" filterUnits="userSpaceOnUse" color-interpolation-filters="sRGB">
<feFlood flood-opacity="0" result="BackgroundImageFix"/>
<feColorMatrix in="SourceAlpha" type="matrix" values="0 0 0 0 0 0 0 0 0 0 0 0 0 0 0 0 0 0 127 0" result="hardAlpha"/>
<feOffset dx="-1.77778" dy="-7.11111"/>
<feGaussianBlur stdDeviation="2.66667"/>
<feComposite in2="hardAlpha" operator="out"/>
<feColorMatrix type="matrix" values="0 0 0 0 0 0 0 0 0 0 0 0 0 0 0 0 0 0 0.3 0"/>
<feBlend mode="normal" in2="BackgroundImageFix" result="effect1_dropShadow_244_1514"/>
<feBlend mode="normal" in="SourceGraphic" in2="effect1_dropShadow_244_1514" result="shape"/>
<feColorMatrix in="SourceAlpha" type="matrix" values="0 0 0 0 0 0 0 0 0 0 0 0 0 0 0 0 0 0 127 0" result="hardAlpha"/>
<feOffset dx="2.76543" dy="2.76543"/>
<feGaussianBlur stdDeviation="2.76543"/>
<feComposite in2="hardAlpha" operator="arithmetic" k2="-1" k3="1"/>
<feColorMatrix type="matrix" values="0 0 0 0 1 0 0 0 0 1 0 0 0 0 1 0 0 0 0.7 0"/>
<feBlend mode="normal" in2="shape" result="effect2_innerShadow_244_1514"/>
</filter>
<filter id="filter4_bi_244_1514" x="-4" y="10.6667" width="66" height="51.4444" filterUnits="userSpaceOnUse" color-interpolation-filters="sRGB">
<feFlood flood-opacity="0" result="BackgroundImageFix"/>
<feGaussianBlur in="BackgroundImageFix" stdDeviation="3"/>
<feComposite in2="SourceAlpha" operator="in" result="effect1_backgroundBlur_244_1514"/>
<feBlend mode="normal" in="SourceGraphic" in2="effect1_backgroundBlur_244_1514" result="shape"/>
<feColorMatrix in="SourceAlpha" type="matrix" values="0 0 0 0 0 0 0 0 0 0 0 0 0 0 0 0 0 0 127 0" result="hardAlpha"/>
<feOffset dx="0.888889" dy="3.00444"/>
<feGaussianBlur stdDeviation="3"/>
<feComposite in2="hardAlpha" operator="arithmetic" k2="-1" k3="1"/>
<feColorMatrix type="matrix" values="0 0 0 0 1 0 0 0 0 1 0 0 0 0 1 0 0 0 0.95 0"/>
<feBlend mode="normal" in2="shape" result="effect2_innerShadow_244_1514"/>
</filter>
<filter id="filter5_d_244_1514" x="7.46749" y="7.77778" width="45.5325" height="45.6667" filterUnits="userSpaceOnUse" color-interpolation-filters="sRGB">
<feFlood flood-opacity="0" result="BackgroundImageFix"/>
<feColorMatrix in="SourceAlpha" type="matrix" values="0 0 0 0 0 0 0 0 0 0 0 0 0 0 0 0 0 0 127 0" result="hardAlpha"/>
<feOffset dx="2.66667" dy="-3.55556"/>
<feGaussianBlur stdDeviation="2.66667"/>
<feComposite in2="hardAlpha" operator="out"/>
<feColorMatrix type="matrix" values="0 0 0 0 0 0 0 0 0 0 0 0 0 0 0 0 0 0 0.4 0"/>
<feBlend mode="soft-light" in2="BackgroundImageFix" result="effect1_dropShadow_244_1514"/>
<feBlend mode="normal" in="SourceGraphic" in2="effect1_dropShadow_244_1514" result="shape"/>
</filter>
<filter id="filter6_i_244_1514" x="10" y="16.6667" width="38" height="38" filterUnits="userSpaceOnUse" color-interpolation-filters="sRGB">
<feFlood flood-opacity="0" result="BackgroundImageFix"/>
<feBlend mode="normal" in="SourceGraphic" in2="BackgroundImageFix" result="shape"/>
<feColorMatrix in="SourceAlpha" type="matrix" values="0 0 0 0 0 0 0 0 0 0 0 0 0 0 0 0 0 0 127 0" result="hardAlpha"/>
<feOffset dx="3" dy="3"/>
<feGaussianBlur stdDeviation="3"/>
<feComposite in2="hardAlpha" operator="arithmetic" k2="-1" k3="1"/>
<feColorMatrix type="matrix" values="0 0 0 0 1 0 0 0 0 1 0 0 0 0 1 0 0 0 0.7 0"/>
<feBlend mode="normal" in2="shape" result="effect1_innerShadow_244_1514"/>
</filter>
<filter id="filter7_di_244_1514" x="-5.11111" y="18.7778" width="35.5556" height="40.0988" filterUnits="userSpaceOnUse" color-interpolation-filters="sRGB">
<feFlood flood-opacity="0" result="BackgroundImageFix"/>
<feColorMatrix in="SourceAlpha" type="matrix" values="0 0 0 0 0 0 0 0 0 0 0 0 0 0 0 0 0 0 127 0" result="hardAlpha"/>
<feOffset dx="-1.77778" dy="-7.11111"/>
<feGaussianBlur stdDeviation="2.66667"/>
<feComposite in2="hardAlpha" operator="out"/>
<feColorMatrix type="matrix" values="0 0 0 0 0 0 0 0 0 0 0 0 0 0 0 0 0 0 0.3 0"/>
<feBlend mode="normal" in2="BackgroundImageFix" result="effect1_dropShadow_244_1514"/>
<feBlend mode="normal" in="SourceGraphic" in2="effect1_dropShadow_244_1514" result="shape"/>
<feColorMatrix in="SourceAlpha" type="matrix" values="0 0 0 0 0 0 0 0 0 0 0 0 0 0 0 0 0 0 127 0" result="hardAlpha"/>
<feOffset dx="2.76543" dy="2.76543"/>
<feGaussianBlur stdDeviation="2.76543"/>
<feComposite in2="hardAlpha" operator="arithmetic" k2="-1" k3="1"/>
<feColorMatrix type="matrix" values="0 0 0 0 1 0 0 0 0 1 0 0 0 0 1 0 0 0 0.7 0"/>
<feBlend mode="normal" in2="shape" result="effect2_innerShadow_244_1514"/>
</filter>
<linearGradient id="paint0_linear_244_1514" x1="50" y1="28" x2="36" y2="40.5" gradientUnits="userSpaceOnUse">
<stop stop-color="#C8E0FF"/>
<stop offset="1" stop-color="#C8E0FF" stop-opacity="0"/>
</linearGradient>
<radialGradient id="paint1_radial_244_1514" cx="0" cy="0" r="1" gradientUnits="userSpaceOnUse" gradientTransform="translate(29.2222 16.4445) rotate(90) scale(31.1111 35.5088)">
<stop stop-color="#EFF6FF" stop-opacity="0.9"/>
<stop offset="1" stop-color="#89C8F5" stop-opacity="0.8"/>
</radialGradient>
<radialGradient id="paint2_radial_244_1514" cx="0" cy="0" r="1" gradientUnits="userSpaceOnUse" gradientTransform="translate(37.5 21.6111) rotate(90) scale(22.5 25)">
<stop offset="0.239583" stop-color="#C8E0FF"/>
<stop offset="1" stop-color="#89C8F5"/>
</radialGradient>
<linearGradient id="paint3_linear_244_1514" x1="33.5" y1="8.66667" x2="33.5" y2="43.6667" gradientUnits="userSpaceOnUse">
<stop stop-color="#7DAAE6"/>
<stop offset="1" stop-color="#7DAAE5" stop-opacity="0"/>
</linearGradient>
<linearGradient id="paint4_linear_244_1514" x1="20.4444" y1="23.2222" x2="20.4444" y2="48.1111" gradientUnits="userSpaceOnUse">
<stop stop-color="#7DAAE6"/>
<stop offset="1" stop-color="#7DAAE5" stop-opacity="0"/>
</linearGradient>
<linearGradient id="paint5_linear_244_1514" x1="62" y1="34.7778" x2="45.5555" y2="33.8889" gradientUnits="userSpaceOnUse">
<stop stop-color="#96CDF6"/>
<stop offset="1" stop-color="#96CDF6" stop-opacity="0"/>
</linearGradient>
<radialGradient id="paint6_radial_244_1514" cx="0" cy="0" r="1" gradientUnits="userSpaceOnUse" gradientTransform="translate(23.2222 24.4445) rotate(90) scale(31.1111 35.5088)">
<stop stop-color="#EFF6FF" stop-opacity="0.9"/>
<stop offset="1" stop-color="#89C8F5" stop-opacity="0.8"/>
</radialGradient>
<radialGradient id="paint7_radial_244_1514" cx="0" cy="0" r="1" gradientUnits="userSpaceOnUse" gradientTransform="translate(31.5 29.6111) rotate(90) scale(22.5 25)">
<stop offset="0.239583" stop-color="#C8E0FF"/>
<stop offset="1" stop-color="#89C8F5"/>
</radialGradient>
<linearGradient id="paint8_linear_244_1514" x1="27.5" y1="16.6667" x2="27.5" y2="51.6667" gradientUnits="userSpaceOnUse">
<stop stop-color="#7DAAE6"/>
<stop offset="1" stop-color="#7DAAE5" stop-opacity="0"/>
</linearGradient>
<linearGradient id="paint9_linear_244_1514" x1="14.4444" y1="31.2222" x2="14.4444" y2="56.1111" gradientUnits="userSpaceOnUse">
<stop stop-color="#7DAAE6"/>
<stop offset="1" stop-color="#7DAAE5" stop-opacity="0"/>
</linearGradient>
<linearGradient id="paint10_linear_244_1514" x1="56" y1="42.7778" x2="39.5555" y2="41.8889" gradientUnits="userSpaceOnUse">
<stop stop-color="#96CDF6"/>
<stop offset="1" stop-color="#96CDF6" stop-opacity="0"/>
</linearGradient>
<clipPath id="clip0_244_1514">
<rect width="64" height="64" fill="white"/>
</clipPath>
</defs>
</svg>
