<svg width="128" height="128" viewBox="0 0 64 64" fill="none" xmlns="http://www.w3.org/2000/svg">
<g clip-path="url(#clip0_244_1523)">
<g filter="url(#filter0_ii_244_1523)">
<path fill-rule="evenodd" clip-rule="evenodd" d="M9 38.5C9 37.1193 10.1193 36 11.5 36H52.5C53.8807 36 55 37.1193 55 38.5C55 39.8807 53.8807 41 52.5 41H11.5C10.1193 41 9 39.8807 9 38.5ZM13 46.5C13 45.1193 14.1193 44 15.5 44H48.5C49.8807 44 51 45.1193 51 46.5C51 47.8807 49.8807 49 48.5 49H15.5C14.1193 49 13 47.8807 13 46.5ZM19.5 52C18.1193 52 17 53.1193 17 54.5C17 55.8807 18.1193 57 19.5 57H44.5C45.8807 57 47 55.8807 47 54.5C47 53.1193 45.8807 52 44.5 52H19.5Z" fill="url(#paint0_linear_244_1523)"/>
</g>
<mask id="mask0_244_1523" style="mask-type:alpha" maskUnits="userSpaceOnUse" x="4" y="-4" width="56" height="37">
<path d="M4 -4H60V25C60 29.4183 56.4183 33 52 33H12C7.58172 33 4 29.4183 4 25V-4Z" fill="white"/>
</mask>
<g mask="url(#mask0_244_1523)">
<g filter="url(#filter1_bi_244_1523)">
<path fill-rule="evenodd" clip-rule="evenodd" d="M45.1664 42.7396H16.9996C16.9963 42.7396 16.9929 42.7396 16.9896 42.7396C9.90193 42.7396 4.15625 36.9939 4.15625 29.9062C4.15625 24.3812 7.64771 19.6716 12.5446 17.8636C13.6503 8.95638 21.2466 2.0625 30.4531 2.0625C38.108 2.0625 44.6497 6.82842 47.2728 13.5549C54.3803 14.5717 59.8438 20.6843 59.8438 28.0729C59.8438 36.1731 53.2773 42.7396 45.1771 42.7396" fill="url(#paint1_radial_244_1523)"/>
</g>
<mask id="mask1_244_1523" style="mask-type:alpha" maskUnits="userSpaceOnUse" x="4" y="2" width="56" height="41">
<path fill-rule="evenodd" clip-rule="evenodd" d="M45.1664 42.7396H16.9996C16.9963 42.7396 16.9929 42.7396 16.9896 42.7396C9.90193 42.7396 4.15625 36.9939 4.15625 29.9062C4.15625 24.3812 7.64771 19.6716 12.5446 17.8636C13.6503 8.95638 21.2466 2.0625 30.4531 2.0625C38.108 2.0625 44.6497 6.82842 47.2728 13.5549C54.3803 14.5717 59.8438 20.6843 59.8438 28.0729C59.8438 36.1731 53.2773 42.7396 45.1771 42.7396" fill="url(#paint2_radial_244_1523)"/>
</mask>
<g mask="url(#mask1_244_1523)">
<g filter="url(#filter2_d_244_1523)">
<mask id="mask2_244_1523" style="mask-type:alpha" maskUnits="userSpaceOnUse" x="12" y="2" width="37" height="37">
<g style="mix-blend-mode:soft-light">
<path fill-rule="evenodd" clip-rule="evenodd" d="M30.4531 38.1562C40.4201 38.1562 48.5 30.0764 48.5 20.1094C48.5 10.1424 40.4201 2.0625 30.4531 2.0625C21.2466 2.0625 13.6503 8.95638 12.5446 17.8636C13.9296 17.3522 15.427 17.0729 16.9896 17.0729C24.0772 17.0729 29.8229 22.8186 29.8229 29.9062C29.8229 32.9016 28.7967 35.6573 27.0767 37.8409C28.1704 38.0479 29.2991 38.1562 30.4531 38.1562Z" fill="#09244B"/>
</g>
</mask>
<g mask="url(#mask2_244_1523)">
<g style="mix-blend-mode:soft-light" filter="url(#filter3_i_244_1523)">
<circle cx="30.4531" cy="20.1094" r="18.0469" fill="url(#paint3_linear_244_1523)"/>
</g>
</g>
</g>
<g style="mix-blend-mode:soft-light" filter="url(#filter4_di_244_1523)">
<circle cx="16.9896" cy="29.9062" r="12.8333" fill="url(#paint4_linear_244_1523)" shape-rendering="crispEdges"/>
</g>
<g style="mix-blend-mode:soft-light" opacity="0.7">
<circle cx="45.1771" cy="28.0729" r="14.6667" fill="url(#paint5_linear_244_1523)"/>
</g>
</g>
</g>
</g>
<defs>
<filter id="filter0_ii_244_1523" x="9" y="35" width="46" height="23" filterUnits="userSpaceOnUse" color-interpolation-filters="sRGB">
<feFlood flood-opacity="0" result="BackgroundImageFix"/>
<feBlend mode="normal" in="SourceGraphic" in2="BackgroundImageFix" result="shape"/>
<feColorMatrix in="SourceAlpha" type="matrix" values="0 0 0 0 0 0 0 0 0 0 0 0 0 0 0 0 0 0 127 0" result="hardAlpha"/>
<feOffset dy="1"/>
<feGaussianBlur stdDeviation="1"/>
<feComposite in2="hardAlpha" operator="arithmetic" k2="-1" k3="1"/>
<feColorMatrix type="matrix" values="0 0 0 0 1 0 0 0 0 1 0 0 0 0 1 0 0 0 0.7 0"/>
<feBlend mode="normal" in2="shape" result="effect1_innerShadow_244_1523"/>
<feColorMatrix in="SourceAlpha" type="matrix" values="0 0 0 0 0 0 0 0 0 0 0 0 0 0 0 0 0 0 127 0" result="hardAlpha"/>
<feOffset dy="-1"/>
<feGaussianBlur stdDeviation="1.5"/>
<feComposite in2="hardAlpha" operator="arithmetic" k2="-1" k3="1"/>
<feColorMatrix type="matrix" values="0 0 0 0 0.650972 0 0 0 0 0.675608 0 0 0 0 0.716667 0 0 0 0.5 0"/>
<feBlend mode="normal" in2="effect1_innerShadow_244_1523" result="effect2_innerShadow_244_1523"/>
</filter>
<filter id="filter1_bi_244_1523" x="-2.03125" y="-4.125" width="68.0625" height="53.0521" filterUnits="userSpaceOnUse" color-interpolation-filters="sRGB">
<feFlood flood-opacity="0" result="BackgroundImageFix"/>
<feGaussianBlur in="BackgroundImageFix" stdDeviation="3.09375"/>
<feComposite in2="SourceAlpha" operator="in" result="effect1_backgroundBlur_244_1523"/>
<feBlend mode="normal" in="SourceGraphic" in2="effect1_backgroundBlur_244_1523" result="shape"/>
<feColorMatrix in="SourceAlpha" type="matrix" values="0 0 0 0 0 0 0 0 0 0 0 0 0 0 0 0 0 0 127 0" result="hardAlpha"/>
<feOffset dx="0.916667" dy="3.09833"/>
<feGaussianBlur stdDeviation="3.09375"/>
<feComposite in2="hardAlpha" operator="arithmetic" k2="-1" k3="1"/>
<feColorMatrix type="matrix" values="0 0 0 0 1 0 0 0 0 1 0 0 0 0 1 0 0 0 0.95 0"/>
<feBlend mode="normal" in2="shape" result="effect2_innerShadow_244_1523"/>
</filter>
<filter id="filter2_d_244_1523" x="9.79462" y="-7.10417" width="46.9554" height="47.0938" filterUnits="userSpaceOnUse" color-interpolation-filters="sRGB">
<feFlood flood-opacity="0" result="BackgroundImageFix"/>
<feColorMatrix in="SourceAlpha" type="matrix" values="0 0 0 0 0 0 0 0 0 0 0 0 0 0 0 0 0 0 127 0" result="hardAlpha"/>
<feOffset dx="2.75" dy="-3.66667"/>
<feGaussianBlur stdDeviation="2.75"/>
<feComposite in2="hardAlpha" operator="out"/>
<feColorMatrix type="matrix" values="0 0 0 0 0 0 0 0 0 0 0 0 0 0 0 0 0 0 0.4 0"/>
<feBlend mode="soft-light" in2="BackgroundImageFix" result="effect1_dropShadow_244_1523"/>
<feBlend mode="normal" in="SourceGraphic" in2="effect1_dropShadow_244_1523" result="shape"/>
</filter>
<filter id="filter3_i_244_1523" x="12.4062" y="2.0625" width="39.1875" height="39.1875" filterUnits="userSpaceOnUse" color-interpolation-filters="sRGB">
<feFlood flood-opacity="0" result="BackgroundImageFix"/>
<feBlend mode="normal" in="SourceGraphic" in2="BackgroundImageFix" result="shape"/>
<feColorMatrix in="SourceAlpha" type="matrix" values="0 0 0 0 0 0 0 0 0 0 0 0 0 0 0 0 0 0 127 0" result="hardAlpha"/>
<feOffset dx="3.09375" dy="3.09375"/>
<feGaussianBlur stdDeviation="3.09375"/>
<feComposite in2="hardAlpha" operator="arithmetic" k2="-1" k3="1"/>
<feColorMatrix type="matrix" values="0 0 0 0 1 0 0 0 0 1 0 0 0 0 1 0 0 0 0.7 0"/>
<feBlend mode="normal" in2="shape" result="effect1_innerShadow_244_1523"/>
</filter>
<filter id="filter4_di_244_1523" x="-3.17708" y="4.23957" width="36.6667" height="41.3518" filterUnits="userSpaceOnUse" color-interpolation-filters="sRGB">
<feFlood flood-opacity="0" result="BackgroundImageFix"/>
<feColorMatrix in="SourceAlpha" type="matrix" values="0 0 0 0 0 0 0 0 0 0 0 0 0 0 0 0 0 0 127 0" result="hardAlpha"/>
<feOffset dx="-1.83333" dy="-7.33333"/>
<feGaussianBlur stdDeviation="2.75"/>
<feComposite in2="hardAlpha" operator="out"/>
<feColorMatrix type="matrix" values="0 0 0 0 0 0 0 0 0 0 0 0 0 0 0 0 0 0 0.3 0"/>
<feBlend mode="normal" in2="BackgroundImageFix" result="effect1_dropShadow_244_1523"/>
<feBlend mode="normal" in="SourceGraphic" in2="effect1_dropShadow_244_1523" result="shape"/>
<feColorMatrix in="SourceAlpha" type="matrix" values="0 0 0 0 0 0 0 0 0 0 0 0 0 0 0 0 0 0 127 0" result="hardAlpha"/>
<feOffset dx="2.85185" dy="2.85185"/>
<feGaussianBlur stdDeviation="2.85185"/>
<feComposite in2="hardAlpha" operator="arithmetic" k2="-1" k3="1"/>
<feColorMatrix type="matrix" values="0 0 0 0 1 0 0 0 0 1 0 0 0 0 1 0 0 0 0.7 0"/>
<feBlend mode="normal" in2="shape" result="effect2_innerShadow_244_1523"/>
</filter>
<linearGradient id="paint0_linear_244_1523" x1="55" y1="44" x2="38.917" y2="68.7294" gradientUnits="userSpaceOnUse">
<stop stop-color="#F2F6FA" stop-opacity="0.8"/>
<stop offset="1" stop-color="#8C99AE"/>
</linearGradient>
<radialGradient id="paint1_radial_244_1523" cx="0" cy="0" r="1" gradientUnits="userSpaceOnUse" gradientTransform="translate(26.0417 10.0833) rotate(90) scale(32.0833 36.6184)">
<stop stop-color="#EFF6FF" stop-opacity="0.9"/>
<stop offset="1" stop-color="#89C8F5" stop-opacity="0.8"/>
</radialGradient>
<radialGradient id="paint2_radial_244_1523" cx="0" cy="0" r="1" gradientUnits="userSpaceOnUse" gradientTransform="translate(34.5781 15.4115) rotate(90) scale(23.2031 25.7813)">
<stop offset="0.239583" stop-color="#C8E0FF"/>
<stop offset="1" stop-color="#89C8F5"/>
</radialGradient>
<linearGradient id="paint3_linear_244_1523" x1="30.4531" y1="2.0625" x2="30.4531" y2="38.1562" gradientUnits="userSpaceOnUse">
<stop stop-color="#7DAAE6"/>
<stop offset="1" stop-color="#7DAAE5" stop-opacity="0"/>
</linearGradient>
<linearGradient id="paint4_linear_244_1523" x1="16.9896" y1="17.0729" x2="16.9896" y2="42.7396" gradientUnits="userSpaceOnUse">
<stop stop-color="#7DAAE6"/>
<stop offset="1" stop-color="#7DAAE5" stop-opacity="0"/>
</linearGradient>
<linearGradient id="paint5_linear_244_1523" x1="59.8438" y1="28.9896" x2="42.8854" y2="28.0729" gradientUnits="userSpaceOnUse">
<stop stop-color="#96CDF6"/>
<stop offset="1" stop-color="#96CDF6" stop-opacity="0"/>
</linearGradient>
<clipPath id="clip0_244_1523">
<rect width="64" height="64" fill="white"/>
</clipPath>
</defs>
</svg>
