<svg width="128" height="128" viewBox="0 0 64 64" fill="none" xmlns="http://www.w3.org/2000/svg">
<g clip-path="url(#clip0_244_1530)">
<g filter="url(#filter0_bii_244_1530)">
<path fill-rule="evenodd" clip-rule="evenodd" d="M32.3833 4C33.9297 4 35.1833 5.25362 35.1833 6.8V9.49248L37.0145 8.52452C38.3817 7.80184 40.0757 8.32429 40.7984 9.69145C41.5211 11.0586 40.9986 12.7527 39.6317 13.4754L35.1833 15.8267V21.1528C37.185 21.668 38.9703 22.7226 40.3745 24.1525L44.9897 21.4879L44.8019 16.46C44.7442 14.9147 45.9501 13.6152 47.4955 13.5575C49.0408 13.4997 50.3403 14.7057 50.3979 16.251L50.4752 18.3208L52.8071 16.9746C54.1463 16.2014 55.8588 16.6603 56.6319 17.9995C57.4052 19.3387 56.9463 21.0511 55.6071 21.8243L53.2752 23.1706L55.0291 24.2724C56.3387 25.0951 56.7332 26.8234 55.9106 28.1329C55.0879 29.4422 53.3595 29.837 52.0499 29.0144L47.7897 26.3377L43.1773 29.0006C43.4422 29.9552 43.5836 30.9612 43.5836 32C43.5836 33.0388 43.4422 34.0448 43.1773 34.9994L47.7897 37.6624L52.0502 34.9856C53.3595 34.163 55.0879 34.5578 55.9106 35.8671C56.7332 37.1766 56.3387 38.9048 55.0294 39.7274L53.2755 40.8295L55.6071 42.1758C56.9463 42.9488 57.4052 44.6613 56.6321 46.0006C55.8588 47.3398 54.1463 47.7987 52.8071 47.0254L50.4755 45.6791L50.3982 47.7489C50.3403 49.2942 49.0408 50.5002 47.4955 50.4425C45.9501 50.3848 44.7442 49.0853 44.8021 47.54L44.9897 42.512L40.3745 39.8476C38.9703 41.2772 37.185 42.332 35.1833 42.8472V48.1734L39.6317 50.5245C40.9986 51.2472 41.5211 52.9415 40.7984 54.3084C40.0757 55.6757 38.3817 56.1982 37.0145 55.4755L35.1833 54.5075V57.2C35.1833 58.7464 33.9297 60 32.3833 60C30.8369 60 29.5833 58.7464 29.5833 57.2V54.5075L27.7521 55.4755C26.385 56.1982 24.6909 55.6757 23.9682 54.3084C23.2455 52.9415 23.768 51.2472 25.1351 50.5245L29.5833 48.1734V42.8472C27.5813 42.3317 25.796 41.277 24.3916 39.8467L19.7767 42.5109L19.9645 47.5389C20.0223 49.0842 18.8163 50.3837 17.271 50.4414C15.7257 50.4993 14.4262 49.2934 14.3684 47.748L14.2911 45.678L11.9594 47.0242C10.6201 47.7976 8.9077 47.3387 8.13451 45.9994C7.36132 44.6602 7.82015 42.9477 9.15936 42.1746L11.4911 40.8284L9.73725 39.7266C8.42783 38.904 8.0332 37.1755 8.85587 35.866C9.67851 34.5567 11.4069 34.1619 12.7163 34.9845L16.9767 37.6613L21.5893 34.9982C21.3249 34.044 21.1835 33.0385 21.1835 32C21.1835 30.9615 21.3249 29.956 21.5893 29.0018L16.9768 26.3388L12.7165 29.0155C11.407 29.8381 9.67865 29.4433 8.85601 28.134C8.03334 26.8245 8.42795 25.0962 9.73739 24.2735L11.4913 23.1716L9.1595 21.8254C7.82029 21.0522 7.36143 19.3397 8.13465 18.0005C8.90784 16.6613 10.6203 16.2025 11.9595 16.9757L14.2913 18.3219L14.3686 16.2521C14.4263 14.7068 15.7258 13.5008 17.2711 13.5585C18.8164 13.6163 20.0224 14.9158 19.9647 16.4611L19.7768 21.489L24.3916 24.1534C25.796 22.7231 27.5813 21.6682 29.5833 21.1529V15.8267L25.1351 13.4754C23.768 12.7527 23.2455 11.0586 23.9682 9.69145C24.6909 8.32429 26.385 7.80184 27.7521 8.52452L29.5833 9.49248V6.8C29.5833 5.25362 30.8369 4 32.3833 4ZM32.3833 37.6C35.4762 37.6 37.9833 35.0929 37.9833 32C37.9833 28.9071 35.4762 26.4 32.3833 26.4C29.2904 26.4 26.7833 28.9071 26.7833 32C26.7833 35.0929 29.2904 37.6 32.3833 37.6Z" fill="url(#paint0_linear_244_1530)"/>
</g>
</g>
<defs>
<filter id="filter0_bii_244_1530" x="6.67891" y="2.92" width="51.4087" height="58.16" filterUnits="userSpaceOnUse" color-interpolation-filters="sRGB">
<feFlood flood-opacity="0" result="BackgroundImageFix"/>
<feGaussianBlur in="BackgroundImageFix" stdDeviation="0.54"/>
<feComposite in2="SourceAlpha" operator="in" result="effect1_backgroundBlur_244_1530"/>
<feBlend mode="normal" in="SourceGraphic" in2="effect1_backgroundBlur_244_1530" result="shape"/>
<feColorMatrix in="SourceAlpha" type="matrix" values="0 0 0 0 0 0 0 0 0 0 0 0 0 0 0 0 0 0 127 0" result="hardAlpha"/>
<feOffset dy="1"/>
<feGaussianBlur stdDeviation="1"/>
<feComposite in2="hardAlpha" operator="arithmetic" k2="-1" k3="1"/>
<feColorMatrix type="matrix" values="0 0 0 0 1 0 0 0 0 1 0 0 0 0 1 0 0 0 1 0"/>
<feBlend mode="normal" in2="shape" result="effect2_innerShadow_244_1530"/>
<feColorMatrix in="SourceAlpha" type="matrix" values="0 0 0 0 0 0 0 0 0 0 0 0 0 0 0 0 0 0 127 0" result="hardAlpha"/>
<feOffset dy="-1"/>
<feGaussianBlur stdDeviation="1.5"/>
<feComposite in2="hardAlpha" operator="arithmetic" k2="-1" k3="1"/>
<feColorMatrix type="matrix" values="0 0 0 0 0.137074 0 0 0 0 0.636771 0 0 0 0 0.998621 0 0 0 1 0"/>
<feBlend mode="normal" in2="effect2_innerShadow_244_1530" result="effect3_innerShadow_244_1530"/>
</filter>
<linearGradient id="paint0_linear_244_1530" x1="56.65" y1="4" x2="8.11663" y2="60" gradientUnits="userSpaceOnUse">
<stop stop-color="#EAF6FF"/>
<stop offset="1" stop-color="#61BDFF"/>
</linearGradient>
<clipPath id="clip0_244_1530">
<rect width="64" height="64" fill="white"/>
</clipPath>
</defs>
</svg>
