<svg width="64" height="64" viewBox="0 0 64 64" fill="none" xmlns="http://www.w3.org/2000/svg">
<g clip-path="url(#clip0_244_1536)">
<path d="M59 55.9997C59 54.3428 57.6569 52.9997 56 52.9997H8C6.34316 52.9997 5 54.3428 5 55.9997C5 57.6566 6.34316 58.9997 8 58.9997H56C57.6569 58.9997 59 57.6566 59 55.9997Z" fill="#FFD352"/>
<path d="M32 25.9996C41.9411 25.9996 50 34.0586 50 43.9997C50 47.2784 49.1222 50.3528 47.5913 52.9997H16.4093C14.878 50.3528 14 47.2787 14 43.9997C14 34.0586 22.0589 25.9996 32 25.9996Z" fill="url(#paint0_radial_244_1536)"/>
<path d="M59 40.9997C60.6569 40.9997 62 42.3428 62 43.9997C62 45.5383 60.8419 46.8062 59.3499 46.9795L59 46.9997H56C54.3431 46.9997 53 45.6566 53 43.9997C53 42.4612 54.1581 41.1932 55.6501 41.0199L56 40.9997H59ZM8 40.9997C9.65684 40.9997 11 42.3428 11 43.9997C11 45.5383 9.84187 46.8062 8.34986 46.9795L8 46.9997H5C3.34316 46.9997 2 45.6566 2 43.9997C2 42.4612 3.15813 41.1932 4.65014 41.0199L5 40.9997H8ZM15.0294 22.7863L17.1507 24.9076C18.3223 26.0792 18.3223 27.9788 17.1507 29.1503C15.9791 30.3218 14.0796 30.3218 12.908 29.1503L10.7867 27.029C9.61514 25.8574 9.61514 23.9578 10.7867 22.7863C11.9583 21.6147 13.8578 21.6147 15.0294 22.7863ZM48.9707 22.7863C50.1422 21.6148 52.0415 21.6148 53.2133 22.7863C54.2947 23.8678 54.3779 25.5695 53.4629 26.7464L53.2133 27.029L51.092 29.1503C49.9202 30.3218 48.0209 30.3218 46.8494 29.1503C45.7677 28.0689 45.6845 26.3671 46.5998 25.1903L46.8494 24.9076L48.9707 22.7863Z" fill="url(#paint1_linear_244_1536)"/>
<path d="M32 1.63965C33.6569 1.63965 35 2.98281 35 4.63965V12.757L36.2426 11.5144C37.4141 10.3428 39.3137 10.3428 40.4852 11.5144C41.6567 12.6859 41.6567 14.5854 40.4852 15.757L34.1213 22.1209C32.9498 23.2925 31.0502 23.2925 29.8787 22.1209L23.5147 15.757C22.3431 14.5854 22.3431 12.6859 23.5147 11.5144C24.6862 10.3428 26.5856 10.3428 27.7574 11.5144L29 12.757V4.63965C29 2.98281 30.3431 1.63965 32 1.63965Z" fill="#FFA014"/>
</g>
<defs>
<radialGradient id="paint0_radial_244_1536" cx="0" cy="0" r="1" gradientUnits="userSpaceOnUse" gradientTransform="translate(19.5 29.3746) rotate(34.9876) scale(37.2255 35.0587)">
<stop offset="0.193671" stop-color="#FFE475"/>
<stop offset="0.529275" stop-color="#FFB029"/>
<stop offset="0.780467" stop-color="#FF9100"/>
</radialGradient>
<linearGradient id="paint1_linear_244_1536" x1="1.625" y1="21.7508" x2="19.7113" y2="64.9986" gradientUnits="userSpaceOnUse">
<stop offset="0.166667" stop-color="#FFE475"/>
<stop offset="0.798611" stop-color="#FFBF29"/>
</linearGradient>
<clipPath id="clip0_244_1536">
<rect width="64" height="64" fill="white"/>
</clipPath>
</defs>
</svg>
