<svg width="96" height="96" viewBox="0 0 96 96" fill="none" xmlns="http://www.w3.org/2000/svg">
<g clip-path="url(#clip0_231_5663)">
<g filter="url(#filter0_ii_231_5663)">
<path fill-rule="evenodd" clip-rule="evenodd" d="M31.5 6C26.5294 6 22.5 10.0294 22.5 15V59.6684C17.9847 62.6124 15 67.7077 15 73.5C15 82.6127 22.3873 90 31.5 90C40.6127 90 48 82.6127 48 73.5C48 67.7077 45.0153 62.6124 40.5 59.6684V15C40.5 10.0294 36.4706 6 31.5 6Z" fill="url(#paint0_linear_231_5663)"/>
</g>
<g filter="url(#filter1_i_231_5663)">
<path fill-rule="evenodd" clip-rule="evenodd" d="M34.5 16.5C34.5 14.8431 33.1569 13.5 31.5 13.5V13.5C29.8431 13.5 28.5 14.8431 28.5 16.5V61.1976C28.5 62.5249 27.6026 63.6568 26.4401 64.2974C23.1971 66.0843 21 69.5355 21 73.5C21 79.299 25.701 84 31.5 84C37.299 84 42 79.299 42 73.5C42 69.5355 39.8029 66.0843 36.5599 64.2974C35.3974 63.6568 34.5 62.5249 34.5 61.1976V16.5Z" fill="url(#paint1_linear_231_5663)"/>
</g>
</g>
<path d="M62.046 23C64.5313 23 66.546 25.0147 66.546 27.5V39.676L68.4099 37.8121C70.1671 36.0547 73.0165 36.0547 74.7738 37.8121C76.531 39.5695 76.531 42.4187 74.7738 44.176L65.2279 53.722C63.4707 55.4793 60.6213 55.4793 58.864 53.722L49.318 44.176C47.5606 42.4187 47.5606 39.5695 49.318 37.8121C51.0753 36.0547 53.9244 36.0547 55.6821 37.8121L57.546 39.676V27.5C57.546 25.0147 59.5606 23 62.046 23Z" fill="#4AB4FF"/>
<defs>
<filter id="filter0_ii_231_5663" x="15" y="4.5" width="33" height="87" filterUnits="userSpaceOnUse" color-interpolation-filters="sRGB">
<feFlood flood-opacity="0" result="BackgroundImageFix"/>
<feBlend mode="normal" in="SourceGraphic" in2="BackgroundImageFix" result="shape"/>
<feColorMatrix in="SourceAlpha" type="matrix" values="0 0 0 0 0 0 0 0 0 0 0 0 0 0 0 0 0 0 127 0" result="hardAlpha"/>
<feOffset dy="1.5"/>
<feGaussianBlur stdDeviation="2.25"/>
<feComposite in2="hardAlpha" operator="arithmetic" k2="-1" k3="1"/>
<feColorMatrix type="matrix" values="0 0 0 0 1 0 0 0 0 1 0 0 0 0 1 0 0 0 1 0"/>
<feBlend mode="normal" in2="shape" result="effect1_innerShadow_231_5663"/>
<feColorMatrix in="SourceAlpha" type="matrix" values="0 0 0 0 0 0 0 0 0 0 0 0 0 0 0 0 0 0 127 0" result="hardAlpha"/>
<feOffset dy="-1.5"/>
<feGaussianBlur stdDeviation="2.25"/>
<feComposite in2="hardAlpha" operator="arithmetic" k2="-1" k3="1"/>
<feColorMatrix type="matrix" values="0 0 0 0 0.163003 0 0 0 0 0.281757 0 0 0 0 0.972692 0 0 0 0.5 0"/>
<feBlend mode="normal" in2="effect1_innerShadow_231_5663" result="effect2_innerShadow_231_5663"/>
</filter>
<filter id="filter1_i_231_5663" x="21" y="13.5" width="21" height="71.25" filterUnits="userSpaceOnUse" color-interpolation-filters="sRGB">
<feFlood flood-opacity="0" result="BackgroundImageFix"/>
<feBlend mode="normal" in="SourceGraphic" in2="BackgroundImageFix" result="shape"/>
<feColorMatrix in="SourceAlpha" type="matrix" values="0 0 0 0 0 0 0 0 0 0 0 0 0 0 0 0 0 0 127 0" result="hardAlpha"/>
<feOffset dy="0.75"/>
<feGaussianBlur stdDeviation="0.75"/>
<feComposite in2="hardAlpha" operator="arithmetic" k2="-1" k3="1"/>
<feColorMatrix type="matrix" values="0 0 0 0 1 0 0 0 0 1 0 0 0 0 1 0 0 0 1 0"/>
<feBlend mode="normal" in2="shape" result="effect1_innerShadow_231_5663"/>
</filter>
<linearGradient id="paint0_linear_231_5663" x1="45.8" y1="-7.48661" x2="-11.207" y2="60.3627" gradientUnits="userSpaceOnUse">
<stop stop-color="#C3CCFD"/>
<stop offset="1" stop-color="#667CFA"/>
</linearGradient>
<linearGradient id="paint1_linear_231_5663" x1="31.5" y1="30.4024" x2="8.91541" y2="46.8177" gradientUnits="userSpaceOnUse">
<stop stop-color="#EAF6FF"/>
<stop offset="0.738147" stop-color="#76C4FB"/>
<stop offset="1" stop-color="#4AB4FF"/>
</linearGradient>
<clipPath id="clip0_231_5663">
<rect width="96" height="96" fill="white"/>
</clipPath>
</defs>
</svg>
