<svg width="96" height="96" viewBox="0 0 96 96" fill="none" xmlns="http://www.w3.org/2000/svg">
<g clip-path="url(#clip0_231_5662)">
<g filter="url(#filter0_ii_231_5662)">
<path fill-rule="evenodd" clip-rule="evenodd" d="M31.5 6C26.5294 6 22.5 10.0294 22.5 15V59.6684C17.9847 62.6124 15 67.7077 15 73.5C15 82.6127 22.3873 90 31.5 90C40.6127 90 48 82.6127 48 73.5C48 67.7077 45.0153 62.6124 40.5 59.6684V15C40.5 10.0294 36.4706 6 31.5 6Z" fill="url(#paint0_linear_231_5662)"/>
</g>
<g filter="url(#filter1_i_231_5662)">
<path fill-rule="evenodd" clip-rule="evenodd" d="M34.5 16.5C34.5 14.8431 33.1569 13.5 31.5 13.5V13.5C29.8431 13.5 28.5 14.8431 28.5 16.5V61.1976C28.5 62.5249 27.6026 63.6568 26.4401 64.2974C23.1971 66.0843 21 69.5355 21 73.5C21 79.299 25.701 84 31.5 84C37.299 84 42 79.299 42 73.5C42 69.5355 39.8029 66.0843 36.5599 64.2974C35.3974 63.6568 34.5 62.5249 34.5 61.1976V16.5Z" fill="url(#paint1_radial_231_5662)"/>
</g>
</g>
<path d="M65.2279 24.318L74.7737 33.864C76.5314 35.6213 76.5314 38.4706 74.7737 40.2279C73.0165 41.9853 70.1671 41.9853 68.4098 40.2279L66.5459 38.364V50.54C66.5459 53.0252 64.5313 55.04 62.0459 55.04C59.5606 55.04 57.5459 53.0252 57.5459 50.54V38.364L55.682 40.2279C53.9248 41.9853 51.0754 41.9853 49.318 40.2279C47.5607 38.4706 47.5607 35.6213 49.318 33.864L58.864 24.318C60.6212 22.5607 63.4706 22.5607 65.2279 24.318Z" fill="#FFA014"/>
<defs>
<filter id="filter0_ii_231_5662" x="15" y="4.5" width="33" height="87" filterUnits="userSpaceOnUse" color-interpolation-filters="sRGB">
<feFlood flood-opacity="0" result="BackgroundImageFix"/>
<feBlend mode="normal" in="SourceGraphic" in2="BackgroundImageFix" result="shape"/>
<feColorMatrix in="SourceAlpha" type="matrix" values="0 0 0 0 0 0 0 0 0 0 0 0 0 0 0 0 0 0 127 0" result="hardAlpha"/>
<feOffset dy="1.5"/>
<feGaussianBlur stdDeviation="2.25"/>
<feComposite in2="hardAlpha" operator="arithmetic" k2="-1" k3="1"/>
<feColorMatrix type="matrix" values="0 0 0 0 1 0 0 0 0 1 0 0 0 0 1 0 0 0 1 0"/>
<feBlend mode="normal" in2="shape" result="effect1_innerShadow_231_5662"/>
<feColorMatrix in="SourceAlpha" type="matrix" values="0 0 0 0 0 0 0 0 0 0 0 0 0 0 0 0 0 0 127 0" result="hardAlpha"/>
<feOffset dy="-1.5"/>
<feGaussianBlur stdDeviation="2.25"/>
<feComposite in2="hardAlpha" operator="arithmetic" k2="-1" k3="1"/>
<feColorMatrix type="matrix" values="0 0 0 0 0.163003 0 0 0 0 0.281757 0 0 0 0 0.972692 0 0 0 0.5 0"/>
<feBlend mode="normal" in2="effect1_innerShadow_231_5662" result="effect2_innerShadow_231_5662"/>
</filter>
<filter id="filter1_i_231_5662" x="21" y="13.5" width="21" height="71.25" filterUnits="userSpaceOnUse" color-interpolation-filters="sRGB">
<feFlood flood-opacity="0" result="BackgroundImageFix"/>
<feBlend mode="normal" in="SourceGraphic" in2="BackgroundImageFix" result="shape"/>
<feColorMatrix in="SourceAlpha" type="matrix" values="0 0 0 0 0 0 0 0 0 0 0 0 0 0 0 0 0 0 127 0" result="hardAlpha"/>
<feOffset dy="0.75"/>
<feGaussianBlur stdDeviation="0.75"/>
<feComposite in2="hardAlpha" operator="arithmetic" k2="-1" k3="1"/>
<feColorMatrix type="matrix" values="0 0 0 0 1 0 0 0 0 1 0 0 0 0 1 0 0 0 1 0"/>
<feBlend mode="normal" in2="shape" result="effect1_innerShadow_231_5662"/>
</filter>
<linearGradient id="paint0_linear_231_5662" x1="45.8" y1="-7.48661" x2="-11.207" y2="60.3627" gradientUnits="userSpaceOnUse">
<stop stop-color="#C3CCFD"/>
<stop offset="1" stop-color="#667CFA"/>
</linearGradient>
<radialGradient id="paint1_radial_231_5662" cx="0" cy="0" r="1" gradientUnits="userSpaceOnUse" gradientTransform="translate(25.25 21.5488) rotate(73.3237) scale(53.1391 29.2852)">
<stop offset="0.193671" stop-color="#FFE475"/>
<stop offset="0.529275" stop-color="#FFB029"/>
<stop offset="0.780467" stop-color="#FF9100"/>
</radialGradient>
<clipPath id="clip0_231_5662">
<rect width="96" height="96" fill="white"/>
</clipPath>
</defs>
</svg>
