<svg width="36" height="36" viewBox="0 0 36 36" fill="none" xmlns="http://www.w3.org/2000/svg">
<g clip-path="url(#clip0_236_622)">
<path fill-rule="evenodd" clip-rule="evenodd" d="M8.25003 15C8.25003 14.1136 8.42463 13.2358 8.76385 12.4169C9.10307 11.5979 9.60027 10.8538 10.2271 10.227C10.8539 9.60023 11.598 9.10303 12.4169 8.76381C13.2359 8.42459 14.1136 8.25 15 8.25C15.8865 8.25 16.7642 8.42459 17.5831 8.76381C18.4021 9.10303 19.1462 9.60023 19.773 10.227C20.3998 10.8538 20.897 11.5979 21.2362 12.4169C21.5754 13.2358 21.75 14.1136 21.75 15C21.75 16.7902 21.0389 18.5071 19.773 19.773C18.5071 21.0388 16.7902 21.75 15 21.75C13.2098 21.75 11.4929 21.0388 10.2271 19.773C8.96119 18.5071 8.25003 16.7902 8.25003 15ZM15 3.75C13.2458 3.75019 11.5159 4.16061 9.94851 4.9485C8.38115 5.73639 7.01975 6.8799 5.97308 8.28769C4.9264 9.69548 4.22346 11.3285 3.92038 13.0564C3.61731 14.7843 3.72252 16.5591 4.2276 18.2391C4.73267 19.919 5.62363 21.4576 6.82929 22.7319C8.03495 24.0062 9.5219 24.9808 11.1714 25.578C12.8208 26.1752 14.5871 26.3784 16.3291 26.1714C18.0711 25.9643 19.7405 25.3527 21.204 24.3855L28.4085 31.5915C28.8306 32.0136 29.4031 32.2507 30 32.2507C30.597 32.2507 31.1694 32.0136 31.5915 31.5915C32.0136 31.1694 32.2508 30.5969 32.2508 30C32.2508 29.4031 32.0136 28.8306 31.5915 28.4085L24.3855 21.204C25.5064 19.5084 26.147 17.5408 26.2392 15.5103C26.3314 13.4798 25.8718 11.4622 24.9092 9.67201C23.9465 7.88181 22.5168 6.38586 20.7721 5.34313C19.0273 4.30041 17.0326 3.74986 15 3.75Z" fill="white"/>
</g>
<defs>
<clipPath id="clip0_236_622">
<rect width="36" height="36" fill="white"/>
</clipPath>
</defs>
</svg>
